<?xml version="1.0" ?>
<!-- Uploaded to: SVG Repo, www.svgrepo.com, Generator: SVG Repo Mixer Tools -->
<svg width="800px" height="800px" viewBox="0 0 32 32" xmlns="http://www.w3.org/2000/svg">
<defs>
<style>.cls-1{fill:#ff005c;}</style>
</defs>
<title/>
<g id="Hospital">
<polygon class="cls-1" points="19 4 19 11 11 11 11 13 21 13 21 4 19 4"/>
<rect class="cls-1" height="7" width="2" x="23" y="9"/>
<path d="M29,15H26V9L25,8H22V4L21,3H11L10,4V8H7L6,9v6H3L2,16V29l1,1H29l1-1V16ZM20,5v7H12V5ZM8,10h2v3l1,1H21l1-1V10h2v5H8Zm9,18H15V24h2Zm11,0H19V23l-1-1H14l-1,1v5H4V17H28Z"/>
<rect class="cls-1" height="1" width="9" x="4" y="27"/>
<polygon class="cls-1" points="28 17 28 28 19 28 19 27 26 27 27 26 27 17 28 17"/>
<rect height="2" width="2" x="6" y="20"/>
<rect height="2" width="2" x="10" y="20"/>
<rect height="2" width="2" x="6" y="23"/>
<rect height="2" width="2" x="10" y="23"/>
<rect height="2" width="2" x="20" y="20"/>
<rect height="2" width="2" x="24" y="20"/>
<rect height="2" width="2" x="20" y="23"/>
<rect height="2" width="2" x="24" y="23"/>
<polygon points="15 11 17 11 17 9.5 18.5 9.5 18.5 7.5 17 7.5 17 6 15 6 15 7.5 13.5 7.5 13.5 9.5 15 9.5 15 11"/>
</g>
</svg>